<svg width="126" height="123" viewBox="0 0 126 123" fill="none" xmlns="http://www.w3.org/2000/svg">
<g clip-path="url(#clip0_1576_77699)">
<path d="M0 7.99191C0 3.5781 3.5781 0 7.99191 0H117.008C121.422 0 125 3.5781 125 7.99191V99H0V7.99191Z" fill="white"/>
<path d="M13.4791 19.8977C12.9608 19.8977 12.4914 19.7644 12.0708 19.4979C11.6532 19.2283 11.3215 18.833 11.0757 18.3117C10.8329 17.7875 10.7114 17.1448 10.7114 16.3837C10.7114 15.6018 10.8373 14.9517 11.089 14.4334C11.3408 13.9121 11.6755 13.5227 12.093 13.265C12.5136 13.0044 12.9741 12.8741 13.4747 12.8741C13.8567 12.8741 14.1751 12.9392 14.4298 13.0695C14.6875 13.1969 14.8948 13.3568 15.0518 13.5493C15.2117 13.7389 15.3331 13.9255 15.416 14.1091H15.4738V10.6884H17.3619V19.7866H15.496V18.6938H15.416C15.3272 18.8833 15.2013 19.0714 15.0384 19.258C14.8785 19.4416 14.6697 19.5941 14.412 19.7155C14.1573 19.837 13.8464 19.8977 13.4791 19.8977ZM14.0788 18.3917C14.3839 18.3917 14.6416 18.3087 14.8518 18.1429C15.0651 17.9741 15.228 17.7386 15.3405 17.4365C15.456 17.1344 15.5138 16.7805 15.5138 16.3748C15.5138 15.969 15.4575 15.6166 15.345 15.3174C15.2324 15.0183 15.0695 14.7873 14.8563 14.6244C14.643 14.4615 14.3839 14.3801 14.0788 14.3801C13.7679 14.3801 13.5058 14.4645 13.2925 14.6333C13.0793 14.8021 12.9179 15.0361 12.8083 15.3352C12.6987 15.6343 12.6439 15.9809 12.6439 16.3748C12.6439 16.7716 12.6987 17.1226 12.8083 17.4276C12.9208 17.7297 13.0822 17.9667 13.2925 18.1384C13.5058 18.3073 13.7679 18.3917 14.0788 18.3917Z" fill="#D2D2D2"/>
<path d="M22.001 19.9199C21.3109 19.9199 20.7141 19.7733 20.2106 19.4801C19.7101 19.1839 19.3236 18.7722 19.0511 18.2451C18.7787 17.7149 18.6424 17.1004 18.6424 16.4014C18.6424 15.6965 18.7787 15.0805 19.0511 14.5533C19.3236 14.0232 19.7101 13.6115 20.2106 13.3183C20.7141 13.0222 21.3109 12.8741 22.001 12.8741C22.691 12.8741 23.2863 13.0222 23.7868 13.3183C24.2903 13.6115 24.6783 14.0232 24.9508 14.5533C25.2233 15.0805 25.3595 15.6965 25.3595 16.4014C25.3595 17.1004 25.2233 17.7149 24.9508 18.2451C24.6783 18.7722 24.2903 19.1839 23.7868 19.4801C23.2863 19.7733 22.691 19.9199 22.001 19.9199ZM22.0098 18.4539C22.3238 18.4539 22.5859 18.365 22.7962 18.1873C23.0064 18.0066 23.1649 17.7608 23.2715 17.4499C23.3811 17.1389 23.4359 16.785 23.4359 16.3881C23.4359 15.9912 23.3811 15.6373 23.2715 15.3263C23.1649 15.0154 23.0064 14.7695 22.7962 14.5889C22.5859 14.4082 22.3238 14.3179 22.0098 14.3179C21.6929 14.3179 21.4264 14.4082 21.2102 14.5889C20.9969 14.7695 20.8355 15.0154 20.726 15.3263C20.6193 15.6373 20.566 15.9912 20.566 16.3881C20.566 16.785 20.6193 17.1389 20.726 17.4499C20.8355 17.7608 20.9969 18.0066 21.2102 18.1873C21.4264 18.365 21.6929 18.4539 22.0098 18.4539Z" fill="#D2D2D2"/>
<path d="M29.6732 19.9199C28.9742 19.9199 28.373 19.7718 27.8695 19.4756C27.369 19.1765 26.984 18.7619 26.7145 18.2317C26.4479 17.7016 26.3146 17.0915 26.3146 16.4014C26.3146 15.7025 26.4494 15.0894 26.7189 14.5622C26.9914 14.0321 27.3779 13.6189 27.8784 13.3228C28.3789 13.0236 28.9742 12.8741 29.6643 12.8741C30.2596 12.8741 30.7808 12.9822 31.228 13.1984C31.6753 13.4146 32.0292 13.7181 32.2898 14.1091C32.5504 14.5 32.6941 14.9591 32.7207 15.4863H30.9348C30.8845 15.1457 30.7512 14.8717 30.535 14.6644C30.3218 14.4541 30.0419 14.349 29.6954 14.349C29.4022 14.349 29.146 14.4289 28.9268 14.5889C28.7106 14.7458 28.5418 14.9754 28.4204 15.2775C28.299 15.5796 28.2382 15.9453 28.2382 16.3748C28.2382 16.8101 28.2975 17.1803 28.4159 17.4854C28.5374 17.7904 28.7077 18.0229 28.9268 18.1829C29.146 18.3428 29.4022 18.4228 29.6954 18.4228C29.9116 18.4228 30.1056 18.3783 30.2773 18.2895C30.4521 18.2006 30.5957 18.0718 30.7083 17.903C30.8238 17.7312 30.8993 17.5254 30.9348 17.2855H32.7207C32.6911 17.8067 32.549 18.2658 32.2942 18.6627C32.0425 19.0566 31.6945 19.3646 31.2503 19.5867C30.806 19.8088 30.2803 19.9199 29.6732 19.9199Z" fill="#D2D2D2"/>
<line x1="13.2485" y1="39.2162" x2="121.249" y2="39.2162" stroke="#D2D2D2" stroke-width="1.56764"/>
<line x1="13.2485" y1="49.2162" x2="121.249" y2="49.2162" stroke="#D2D2D2" stroke-width="1.56764"/>
<line x1="13.2485" y1="60.2162" x2="121.249" y2="60.2162" stroke="#D2D2D2" stroke-width="1.56764"/>
<line x1="13.2485" y1="71.2162" x2="121.249" y2="71.2162" stroke="#D2D2D2" stroke-width="1.56764"/>
<line x1="13.2485" y1="81.2162" x2="121.249" y2="81.2162" stroke="#D2D2D2" stroke-width="1.56764"/>
</g>
<path d="M0 99H103V123H7.99191C3.5781 123 0 119.422 0 115.008V99Z" fill="white"/>
<path d="M125.249 99H103.249V123L125.249 99Z" fill="#D0D0D0"/>
<defs>
<clipPath id="clip0_1576_77699">
<path d="M0 7.99191C0 3.5781 3.5781 0 7.99191 0H117.008C121.422 0 125 3.5781 125 7.99191V99H0V7.99191Z" fill="white"/>
</clipPath>
</defs>
</svg>
