<svg width="1440" height="215" viewBox="0 0 1440 215" fill="none" xmlns="http://www.w3.org/2000/svg">
<g clip-path="url(#clip0_1162_6218)">
<rect width="1440" height="215" fill="url(#paint0_linear_1162_6218)"/>
<g opacity="0.6">
<path d="M-275.474 119.222H160.842C214.44 119.222 257.885 92.8529 257.885 60.316H160.842H-178.435C-232.018 60.316 -275.474 86.6849 -275.474 119.222Z" fill="#1B976E"/>
<path d="M-145.2 1.32486H-191.518C-207.784 1.32486 -220.971 14.5114 -220.971 30.7778C-220.971 47.0442 -207.784 60.2308 -191.518 60.2308L215.178 60.2307C215.178 27.6938 181.248 1.32486 139.41 1.32486H-145.2Z" fill="#56B697"/>
<path d="M181.368 177.675H-93.5953C-135.445 177.675 -169.367 151.306 -169.367 118.769H-93.5953H105.6C147.438 118.769 181.368 145.138 181.368 177.675Z" fill="#40AE8B"/>
</g>
<g opacity="0.6">
<path d="M1736.71 122.46H1376.94C1332.74 122.46 1296.92 144.203 1296.92 171.033H1376.94H1656.69C1700.88 171.033 1736.71 149.289 1736.71 122.46Z" fill="#5ED7D7"/>
<path d="M1629.29 219.675H1667.48C1680.9 219.675 1691.77 208.802 1691.77 195.389C1691.77 181.976 1680.9 171.103 1667.48 171.103L1332.13 171.103C1332.13 197.932 1360.11 219.675 1394.61 219.675H1629.29Z" fill="#14A6A6"/>
<path d="M1360.01 74.2612H1586.74C1621.25 74.2612 1649.22 96.0043 1649.22 122.833H1586.74H1422.49C1387.99 122.833 1360.01 101.09 1360.01 74.2612Z" fill="#149C9C"/>
</g>
<path d="M1401.64 175.79C1438.72 175.79 1468.78 145.643 1468.78 108.788H1334.51C1334.51 145.643 1364.56 175.79 1401.64 175.79Z" fill="#40C9C8"/>
<path d="M1401.64 215.323C1388.04 215.323 1377.02 204.324 1377.02 190.758C1377.02 177.191 1388.04 166.193 1401.64 166.193C1415.23 166.193 1426.25 177.191 1426.25 190.758C1426.25 204.324 1415.23 215.323 1401.64 215.323ZM1401.64 142.7C1375.04 142.7 1353.49 164.217 1353.49 190.758C1353.49 217.299 1375.04 238.816 1401.64 238.816C1428.24 238.816 1449.79 217.299 1449.79 190.758C1449.79 164.217 1428.24 142.7 1401.64 142.7Z" fill="#14A6A5"/>
</g>
<defs>
<linearGradient id="paint0_linear_1162_6218" x1="0" y1="0" x2="1393.03" y2="384.957" gradientUnits="userSpaceOnUse">
<stop stop-color="#20A072"/>
<stop offset="1" stop-color="#13B5B5"/>
</linearGradient>
<clipPath id="clip0_1162_6218">
<rect width="1440" height="215" fill="white"/>
</clipPath>
</defs>
</svg>
