<svg width="1440" height="728" viewBox="0 0 1440 728" fill="none" xmlns="http://www.w3.org/2000/svg">
<g opacity="0.3">
<rect x="-1" y="-1" width="50.3685" height="50.3685" transform="matrix(-4.37114e-08 -1 -1 4.37114e-08 1387.43 689.77)" stroke="url(#paint0_linear_1307_3947)" stroke-width="2"/>
<rect x="-1" y="-1" width="50.3685" height="50.3685" transform="matrix(-4.37114e-08 -1 -1 4.37114e-08 1336.68 638.971)" stroke="url(#paint1_linear_1307_3947)" stroke-width="2"/>
<rect x="-1" y="-1" width="50.3685" height="50.3685" transform="matrix(-4.37114e-08 -1 -1 4.37114e-08 1286.05 588.659)" stroke="url(#paint2_linear_1307_3947)" stroke-width="2"/>
<rect x="-1" y="-1" width="50.3685" height="50.3685" transform="matrix(-4.37114e-08 -1 -1 4.37114e-08 1235.28 639.279)" stroke="url(#paint3_linear_1307_3947)" stroke-width="2"/>
<rect x="-1" y="-1" width="50.3685" height="50.3685" transform="matrix(-4.37114e-08 -1 -1 4.37114e-08 1286.02 689.924)" stroke="url(#paint4_linear_1307_3947)" stroke-width="2"/>
<rect x="-1" y="-1" width="50.3685" height="50.3685" transform="matrix(-4.37114e-08 -1 -1 4.37114e-08 1336.68 740.568)" stroke="url(#paint5_linear_1307_3947)" stroke-width="2"/>
<rect x="-1" y="-1" width="50.3685" height="50.3685" transform="matrix(-4.37114e-08 -1 -1 4.37114e-08 1438 740.568)" stroke="url(#paint6_linear_1307_3947)" stroke-width="2"/>
<rect x="-1" y="-1" width="50.3685" height="50.3685" transform="matrix(-4.37114e-08 -1 -1 4.37114e-08 1438 638.971)" stroke="url(#paint7_linear_1307_3947)" stroke-width="2"/>
<rect x="-1" y="-1" width="50.3685" height="50.3685" transform="matrix(-4.37114e-08 -1 -1 4.37114e-08 1387.43 588.397)" stroke="url(#paint8_linear_1307_3947)" stroke-width="2"/>
<rect x="-1" y="-1" width="50.3685" height="50.3685" transform="matrix(-4.37114e-08 -1 -1 4.37114e-08 1438 537.374)" stroke="url(#paint9_linear_1307_3947)" stroke-width="2"/>
</g>
<g filter="url(#filter0_d_1307_3947)">
<rect x="1185.27" y="271.116" width="142.765" height="1087.39" transform="rotate(45.1967 1185.27 271.116)" fill="url(#paint10_linear_1307_3947)" shape-rendering="crispEdges"/>
</g>
<g filter="url(#filter1_d_1307_3947)">
<rect x="548.362" y="128.315" width="142.765" height="1087.39" transform="rotate(45.1967 548.362 128.315)" fill="url(#paint11_linear_1307_3947)" shape-rendering="crispEdges"/>
</g>
<g filter="url(#filter2_d_1307_3947)">
<rect x="1279.92" y="-31" width="142.765" height="1231.69" transform="rotate(45.1967 1279.92 -31)" fill="url(#paint12_linear_1307_3947)" shape-rendering="crispEdges"/>
</g>
<g opacity="0.3">
<rect x="1" y="1" width="50.3685" height="50.3685" transform="matrix(4.37114e-08 1 1 -4.37114e-08 45.2666 -10.9829)" stroke="url(#paint13_linear_1307_3947)" stroke-width="2"/>
<rect x="1" y="1" width="50.3685" height="50.3685" transform="matrix(4.37114e-08 1 1 -4.37114e-08 96.016 39.8154)" stroke="url(#paint14_linear_1307_3947)" stroke-width="2"/>
<rect x="1" y="1" width="50.3685" height="50.3685" transform="matrix(4.37114e-08 1 1 -4.37114e-08 146.642 90.1277)" stroke="url(#paint15_linear_1307_3947)" stroke-width="2"/>
<rect x="1" y="1" width="50.3685" height="50.3685" transform="matrix(4.37114e-08 1 1 -4.37114e-08 197.408 39.5081)" stroke="url(#paint16_linear_1307_3947)" stroke-width="2"/>
<rect x="1" y="1" width="50.3685" height="50.3685" transform="matrix(4.37114e-08 1 1 -4.37114e-08 146.669 -11.1377)" stroke="url(#paint17_linear_1307_3947)" stroke-width="2"/>
<rect x="1" y="1" width="50.3685" height="50.3685" transform="matrix(4.37114e-08 1 1 -4.37114e-08 -5.30763 39.8154)" stroke="url(#paint18_linear_1307_3947)" stroke-width="2"/>
<rect x="1" y="1" width="50.3685" height="50.3685" transform="matrix(4.37114e-08 1 1 -4.37114e-08 45.2666 90.3899)" stroke="url(#paint19_linear_1307_3947)" stroke-width="2"/>
<rect x="1" y="1" width="50.3685" height="50.3685" transform="matrix(4.37114e-08 1 1 -4.37114e-08 -5.30762 141.413)" stroke="url(#paint20_linear_1307_3947)" stroke-width="2"/>
</g>
<defs>
<filter id="filter0_d_1307_3947" x="388.736" y="256.116" width="902.136" height="897.55" filterUnits="userSpaceOnUse" color-interpolation-filters="sRGB">
<feFlood flood-opacity="0" result="BackgroundImageFix"/>
<feColorMatrix in="SourceAlpha" type="matrix" values="0 0 0 0 0 0 0 0 0 0 0 0 0 0 0 0 0 0 127 0" result="hardAlpha"/>
<feOffset dx="-10"/>
<feGaussianBlur stdDeviation="7.5"/>
<feComposite in2="hardAlpha" operator="out"/>
<feColorMatrix type="matrix" values="0 0 0 0 0 0 0 0 0 0 0 0 0 0 0 0 0 0 0.05 0"/>
<feBlend mode="normal" in2="BackgroundImageFix" result="effect1_dropShadow_1307_3947"/>
<feBlend mode="normal" in="SourceGraphic" in2="effect1_dropShadow_1307_3947" result="shape"/>
</filter>
<filter id="filter1_d_1307_3947" x="-248.171" y="113.315" width="902.136" height="897.55" filterUnits="userSpaceOnUse" color-interpolation-filters="sRGB">
<feFlood flood-opacity="0" result="BackgroundImageFix"/>
<feColorMatrix in="SourceAlpha" type="matrix" values="0 0 0 0 0 0 0 0 0 0 0 0 0 0 0 0 0 0 127 0" result="hardAlpha"/>
<feOffset dx="-10"/>
<feGaussianBlur stdDeviation="7.5"/>
<feComposite in2="hardAlpha" operator="out"/>
<feColorMatrix type="matrix" values="0 0 0 0 0 0 0 0 0 0 0 0 0 0 0 0 0 0 0.05 0"/>
<feBlend mode="normal" in2="BackgroundImageFix" result="effect1_dropShadow_1307_3947"/>
<feBlend mode="normal" in="SourceGraphic" in2="effect1_dropShadow_1307_3947" result="shape"/>
</filter>
<filter id="filter2_d_1307_3947" x="376" y="-46" width="1004.53" height="999.239" filterUnits="userSpaceOnUse" color-interpolation-filters="sRGB">
<feFlood flood-opacity="0" result="BackgroundImageFix"/>
<feColorMatrix in="SourceAlpha" type="matrix" values="0 0 0 0 0 0 0 0 0 0 0 0 0 0 0 0 0 0 127 0" result="hardAlpha"/>
<feOffset dx="-15"/>
<feGaussianBlur stdDeviation="7.5"/>
<feComposite in2="hardAlpha" operator="out"/>
<feColorMatrix type="matrix" values="0 0 0 0 0 0 0 0 0 0 0 0 0 0 0 0 0 0 0.05 0"/>
<feBlend mode="normal" in2="BackgroundImageFix" result="effect1_dropShadow_1307_3947"/>
<feBlend mode="normal" in="SourceGraphic" in2="effect1_dropShadow_1307_3947" result="shape"/>
</filter>
<linearGradient id="paint0_linear_1307_3947" x1="0" y1="0" x2="34.2487" y2="1.76805" gradientUnits="userSpaceOnUse">
<stop stop-color="#20A072"/>
<stop offset="1" stop-color="#13B5B5"/>
</linearGradient>
<linearGradient id="paint1_linear_1307_3947" x1="0" y1="0" x2="34.2487" y2="1.76805" gradientUnits="userSpaceOnUse">
<stop stop-color="#20A072"/>
<stop offset="1" stop-color="#13B5B5"/>
</linearGradient>
<linearGradient id="paint2_linear_1307_3947" x1="0" y1="0" x2="34.2487" y2="1.76805" gradientUnits="userSpaceOnUse">
<stop stop-color="#20A072"/>
<stop offset="1" stop-color="#13B5B5"/>
</linearGradient>
<linearGradient id="paint3_linear_1307_3947" x1="0" y1="0" x2="34.2487" y2="1.76805" gradientUnits="userSpaceOnUse">
<stop stop-color="#20A072"/>
<stop offset="1" stop-color="#13B5B5"/>
</linearGradient>
<linearGradient id="paint4_linear_1307_3947" x1="0" y1="0" x2="34.2487" y2="1.76805" gradientUnits="userSpaceOnUse">
<stop stop-color="#20A072"/>
<stop offset="1" stop-color="#13B5B5"/>
</linearGradient>
<linearGradient id="paint5_linear_1307_3947" x1="0" y1="0" x2="34.2487" y2="1.76805" gradientUnits="userSpaceOnUse">
<stop stop-color="#20A072"/>
<stop offset="1" stop-color="#13B5B5"/>
</linearGradient>
<linearGradient id="paint6_linear_1307_3947" x1="0" y1="0" x2="34.2487" y2="1.76805" gradientUnits="userSpaceOnUse">
<stop stop-color="#20A072"/>
<stop offset="1" stop-color="#13B5B5"/>
</linearGradient>
<linearGradient id="paint7_linear_1307_3947" x1="0" y1="0" x2="34.2487" y2="1.76805" gradientUnits="userSpaceOnUse">
<stop stop-color="#20A072"/>
<stop offset="1" stop-color="#13B5B5"/>
</linearGradient>
<linearGradient id="paint8_linear_1307_3947" x1="0" y1="0" x2="34.2487" y2="1.76805" gradientUnits="userSpaceOnUse">
<stop stop-color="#20A072"/>
<stop offset="1" stop-color="#13B5B5"/>
</linearGradient>
<linearGradient id="paint9_linear_1307_3947" x1="0" y1="0" x2="34.2487" y2="1.76805" gradientUnits="userSpaceOnUse">
<stop stop-color="#20A072"/>
<stop offset="1" stop-color="#13B5B5"/>
</linearGradient>
<linearGradient id="paint10_linear_1307_3947" x1="1259.8" y1="1500" x2="1257.91" y2="345.182" gradientUnits="userSpaceOnUse">
<stop stop-color="white"/>
<stop offset="1" stop-color="white" stop-opacity="0"/>
</linearGradient>
<linearGradient id="paint11_linear_1307_3947" x1="50" y1="5000" x2="0" y2="300" gradientUnits="userSpaceOnUse">
<stop stop-color="white"/>
<stop offset="1" stop-color="white" stop-opacity="0"/>
</linearGradient>
<linearGradient id="paint12_linear_1307_3947" x1="1351.31" y1="-10000" x2="0" y2="1200.69" gradientUnits="userSpaceOnUse">
<stop stop-color="white"/>
<stop offset="1" stop-color="white" stop-opacity="0"/>
</linearGradient>
<linearGradient id="paint13_linear_1307_3947" x1="0" y1="0" x2="34.2487" y2="1.76805" gradientUnits="userSpaceOnUse">
<stop stop-color="#20A072"/>
<stop offset="1" stop-color="#13B5B5"/>
</linearGradient>
<linearGradient id="paint14_linear_1307_3947" x1="0" y1="0" x2="34.2487" y2="1.76805" gradientUnits="userSpaceOnUse">
<stop stop-color="#20A072"/>
<stop offset="1" stop-color="#13B5B5"/>
</linearGradient>
<linearGradient id="paint15_linear_1307_3947" x1="0" y1="0" x2="34.2487" y2="1.76805" gradientUnits="userSpaceOnUse">
<stop stop-color="#20A072"/>
<stop offset="1" stop-color="#13B5B5"/>
</linearGradient>
<linearGradient id="paint16_linear_1307_3947" x1="0" y1="0" x2="34.2487" y2="1.76805" gradientUnits="userSpaceOnUse">
<stop stop-color="#20A072"/>
<stop offset="1" stop-color="#13B5B5"/>
</linearGradient>
<linearGradient id="paint17_linear_1307_3947" x1="0" y1="0" x2="34.2487" y2="1.76805" gradientUnits="userSpaceOnUse">
<stop stop-color="#20A072"/>
<stop offset="1" stop-color="#13B5B5"/>
</linearGradient>
<linearGradient id="paint18_linear_1307_3947" x1="0" y1="0" x2="34.2487" y2="1.76805" gradientUnits="userSpaceOnUse">
<stop stop-color="#20A072"/>
<stop offset="1" stop-color="#13B5B5"/>
</linearGradient>
<linearGradient id="paint19_linear_1307_3947" x1="0" y1="0" x2="34.2487" y2="1.76805" gradientUnits="userSpaceOnUse">
<stop stop-color="#20A072"/>
<stop offset="1" stop-color="#13B5B5"/>
</linearGradient>
<linearGradient id="paint20_linear_1307_3947" x1="0" y1="0" x2="34.2487" y2="1.76805" gradientUnits="userSpaceOnUse">
<stop stop-color="#20A072"/>
<stop offset="1" stop-color="#13B5B5"/>
</linearGradient>
</defs>
</svg>
