<svg width="45" height="45" viewBox="0 0 45 45" fill="none" xmlns="http://www.w3.org/2000/svg">
<g clip-path="url(#clip0_549_294)">
<path d="M39.8093 17.7798H26.0586V43.031H39.8093C40.2608 43.0319 40.7081 42.9436 41.1254 42.7712C41.5427 42.5988 41.9219 42.3457 42.2411 42.0265C42.5604 41.7072 42.8135 41.328 42.9859 40.9107C43.1583 40.4934 43.2466 40.0462 43.2457 39.5947V21.2175C43.2467 20.7659 43.1586 20.3185 42.9862 19.901C42.8139 19.4836 42.5609 19.1042 42.2416 18.7848C41.9223 18.4654 41.5431 18.2122 41.1257 18.0398C40.7083 17.8673 40.2609 17.7789 39.8093 17.7798Z" fill="#219653"/>
<path d="M37.7775 34.0482C38.0087 34.0572 38.2393 34.0194 38.4555 33.9372C38.6718 33.8549 38.8692 33.7298 39.0359 33.5695C39.2026 33.4091 39.3353 33.2167 39.4259 33.0038C39.5165 32.791 39.5632 32.562 39.5632 32.3307C39.5632 32.0993 39.5165 31.8703 39.4259 31.6575C39.3353 31.4446 39.2026 31.2522 39.0359 31.0919C38.8692 30.9315 38.6718 30.8064 38.4555 30.7242C38.2393 30.6419 38.0087 30.6041 37.7775 30.6131H32.7262C32.2823 30.6304 31.8623 30.8189 31.5543 31.1391C31.2463 31.4593 31.0742 31.8864 31.0742 32.3307C31.0742 32.775 31.2463 33.202 31.5543 33.5222C31.8623 33.8424 32.2823 34.0309 32.7262 34.0482H37.7775Z" fill="white"/>
<path d="M5.43379 17.7798H19.1845V43.031H5.43379C4.98216 43.0321 4.53478 42.9439 4.11733 42.7716C3.69987 42.5993 3.32055 42.3462 3.00115 42.0269C2.68174 41.7076 2.42853 41.3284 2.25606 40.911C2.08359 40.4936 1.99525 40.0463 1.9961 39.5947V21.2175C1.99507 20.7657 2.08329 20.3183 2.25569 19.9007C2.42808 19.4832 2.68126 19.1038 3.00068 18.7844C3.32011 18.465 3.69948 18.2118 4.11703 18.0394C4.53457 17.867 4.98205 17.7788 5.43379 17.7798Z" fill="#219653"/>
<path d="M7.46339 34.0479C7.23222 34.0569 7.00161 34.0191 6.78539 33.9368C6.56916 33.8546 6.37176 33.7295 6.20503 33.5691C6.03829 33.4088 5.90565 33.2164 5.81504 33.0035C5.72444 32.7907 5.67773 32.5617 5.67773 32.3303C5.67773 32.099 5.72444 31.87 5.81504 31.6572C5.90565 31.4443 6.03829 31.2519 6.20503 31.0915C6.37176 30.9312 6.56916 30.8061 6.78539 30.7238C7.00161 30.6416 7.23222 30.6038 7.46339 30.6128H12.5147C12.9586 30.6301 13.3787 30.8186 13.6867 31.1388C13.9947 31.459 14.1667 31.886 14.1667 32.3303C14.1667 32.7746 13.9947 33.2017 13.6867 33.5219C13.3787 33.8421 12.9586 34.0306 12.5147 34.0479H7.46339ZM7.46339 26.5723C7.23378 26.5786 7.00523 26.5388 6.79125 26.4553C6.57727 26.3718 6.3822 26.2463 6.21756 26.0861C6.05292 25.9259 5.92206 25.7344 5.8327 25.5228C5.74334 25.3112 5.6973 25.0838 5.6973 24.8541C5.6973 24.6244 5.74334 24.397 5.8327 24.1854C5.92206 23.9738 6.05292 23.7823 6.21756 23.6221C6.3822 23.4619 6.57727 23.3364 6.79125 23.2529C7.00523 23.1694 7.23378 23.1296 7.46339 23.1359H12.5147C12.9622 23.1482 13.3872 23.3346 13.6994 23.6555C14.0116 23.9764 14.1863 24.4064 14.1863 24.8541C14.1863 25.3018 14.0116 25.7318 13.6994 26.0527C13.3872 26.3736 12.9622 26.56 12.5147 26.5723H7.46339ZM37.7763 26.5723C38.0059 26.5786 38.2345 26.5388 38.4485 26.4553C38.6624 26.3718 38.8575 26.2463 39.0222 26.0861C39.1868 25.9259 39.3177 25.7344 39.407 25.5228C39.4964 25.3112 39.5424 25.0838 39.5424 24.8541C39.5424 24.6244 39.4964 24.397 39.407 24.1854C39.3177 23.9738 39.1868 23.7823 39.0222 23.6221C38.8575 23.4619 38.6624 23.3364 38.4485 23.2529C38.2345 23.1694 38.0059 23.1296 37.7763 23.1359H32.7263C32.2788 23.1482 31.8538 23.3346 31.5416 23.6555C31.2294 23.9764 31.0547 24.4064 31.0547 24.8541C31.0547 25.3018 31.2294 25.7318 31.5416 26.0527C31.8538 26.3736 32.2788 26.56 32.7263 26.5723H37.7763Z" fill="white"/>
<path d="M22.6209 5.21924C18.8025 5.21924 11.9648 10.3251 11.9648 11.9231V39.5948C11.964 40.0464 12.0523 40.4937 12.2248 40.9111C12.3973 41.3285 12.6505 41.7077 12.9699 42.027C13.2893 42.3463 13.6686 42.5994 14.0861 42.7717C14.5035 42.944 14.9509 43.0322 15.4025 43.0311H29.8405C30.2921 43.032 30.7393 42.9437 31.1566 42.7713C31.5739 42.5989 31.9531 42.3458 32.2723 42.0266C32.5916 41.7073 32.8447 41.3281 33.0171 40.9108C33.1895 40.4935 33.2778 40.0463 33.2769 39.5948V11.9218C33.2769 10.3251 26.4392 5.21924 22.6209 5.21924Z" fill="#4ABF7C"/>
<path d="M22.6122 1.78174C22.0796 1.78434 21.5599 1.95194 21.1247 2.26245L9.60985 10.4682C9.05285 10.865 8.67628 11.4668 8.56299 12.1412C8.44969 12.8156 8.60895 13.5074 9.00572 14.0644C9.40249 14.6214 10.0043 14.9979 10.6787 15.1112C11.3531 15.2245 12.0449 15.0653 12.6019 14.6685L22.6213 7.5281L32.6395 14.6685C33.1965 15.0656 33.8884 15.2252 34.5631 15.1122C35.2377 14.9991 35.8398 14.6227 36.2369 14.0657C36.6341 13.5087 36.7936 12.8167 36.6806 12.1421C36.5675 11.4674 36.1911 10.8653 35.6341 10.4682L24.1193 2.26245C23.8101 2.03119 23.1501 1.78044 22.6122 1.78174Z" fill="#219653"/>
<path d="M22.6207 33.8345C22.056 33.8333 21.4967 33.9436 20.9748 34.1592C20.4529 34.3748 19.9787 34.6913 19.5795 35.0907C19.1803 35.49 18.8639 35.9643 18.6485 36.4862C18.433 37.0082 18.3229 37.5676 18.3242 38.1322V43.0302H26.9184V38.1322C26.9196 37.5676 26.8093 37.0082 26.5937 36.4863C26.3781 35.9644 26.0616 35.4903 25.6623 35.0911C25.2629 34.6918 24.7886 34.3754 24.2667 34.16C23.7447 33.9446 23.1853 33.8344 22.6207 33.8358V33.8345Z" fill="white"/>
<path d="M16.315 29.7097C16.0838 29.7187 15.8532 29.681 15.6369 29.5987C15.4207 29.5164 15.2233 29.3914 15.0566 29.231C14.8899 29.0706 14.7572 28.8782 14.6666 28.6654C14.576 28.4525 14.5293 28.2235 14.5293 27.9922C14.5293 27.7608 14.576 27.5319 14.6666 27.319C14.7572 27.1061 14.8899 26.9138 15.0566 26.7534C15.2233 26.593 15.4207 26.4679 15.6369 26.3857C15.8532 26.3034 16.0838 26.2656 16.315 26.2746H19.3031C19.7471 26.2919 20.1671 26.4804 20.4751 26.8006C20.7831 27.1208 20.9551 27.5479 20.9551 27.9922C20.9551 28.4365 20.7831 28.8635 20.4751 29.1837C20.1671 29.5039 19.7471 29.6925 19.3031 29.7097H16.315ZM25.5964 29.7097C25.3653 29.7187 25.1347 29.681 24.9184 29.5987C24.7022 29.5164 24.5048 29.3914 24.3381 29.231C24.1713 29.0706 24.0387 28.8782 23.9481 28.6654C23.8575 28.4525 23.8108 28.2235 23.8108 27.9922C23.8108 27.7608 23.8575 27.5319 23.9481 27.319C24.0387 27.1061 24.1713 26.9138 24.3381 26.7534C24.5048 26.593 24.7022 26.4679 24.9184 26.3857C25.1347 26.3034 25.3653 26.2656 25.5964 26.2746H28.5846C29.0286 26.2919 29.4486 26.4804 29.7566 26.8006C30.0646 27.1208 30.2366 27.5479 30.2366 27.9922C30.2366 28.4365 30.0646 28.8635 29.7566 29.1837C29.4486 29.5039 29.0286 29.6925 28.5846 29.7097H25.5964ZM16.315 22.4056C16.0838 22.4146 15.8532 22.3769 15.6369 22.2946C15.4207 22.2123 15.2233 22.0873 15.0566 21.9269C14.8899 21.7665 14.7572 21.5741 14.6666 21.3613C14.576 21.1484 14.5293 20.9194 14.5293 20.6881C14.5293 20.4567 14.576 20.2278 14.6666 20.0149C14.7572 19.802 14.8899 19.6097 15.0566 19.4493C15.2233 19.2889 15.4207 19.1638 15.6369 19.0816C15.8532 18.9993 16.0838 18.9615 16.315 18.9705H19.3031C19.7471 18.9878 20.1671 19.1763 20.4751 19.4965C20.7831 19.8167 20.9551 20.2438 20.9551 20.6881C20.9551 21.1324 20.7831 21.5594 20.4751 21.8796C20.1671 22.1998 19.7471 22.3884 19.3031 22.4056H16.315ZM25.5964 22.4056C25.3653 22.4146 25.1347 22.3769 24.9184 22.2946C24.7022 22.2123 24.5048 22.0873 24.3381 21.9269C24.1713 21.7665 24.0387 21.5741 23.9481 21.3613C23.8575 21.1484 23.8108 20.9194 23.8108 20.6881C23.8108 20.4567 23.8575 20.2278 23.9481 20.0149C24.0387 19.802 24.1713 19.6097 24.3381 19.4493C24.5048 19.2889 24.7022 19.1638 24.9184 19.0816C25.1347 18.9993 25.3653 18.9615 25.5964 18.9705H28.5846C29.0286 18.9878 29.4486 19.1763 29.7566 19.4965C30.0646 19.8167 30.2366 20.2438 30.2366 20.6881C30.2366 21.1324 30.0646 21.5594 29.7566 21.8796C29.4486 22.1998 29.0286 22.3884 28.5846 22.4056H25.5964Z" fill="white"/>
</g>
<defs>
<clipPath id="clip0_549_294">
<rect width="44" height="44" fill="white" transform="translate(0.5 0.590332)"/>
</clipPath>
</defs>
</svg>
