<svg width="45" height="45" viewBox="0 0 45 45" fill="none" xmlns="http://www.w3.org/2000/svg">
<g clip-path="url(#clip0_549_565)">
<path d="M43.4632 42.0909H39.9895V10.8278C40.0067 10.5745 39.9385 10.3228 39.7957 10.1129C39.653 9.903 39.444 9.74701 39.2022 9.66988L30.7264 6.12673V42.0909H28.4106V1.56463C28.4106 1.25754 28.2886 0.963025 28.0715 0.745878C27.8543 0.52873 27.5598 0.406738 27.2527 0.406738H6.41062C6.10353 0.406738 5.80901 0.52873 5.59187 0.745878C5.37472 0.963025 5.25273 1.25754 5.25273 1.56463V42.0909H1.77905C1.47196 42.0909 1.17744 42.2129 0.960294 42.43C0.743147 42.6472 0.621155 42.9417 0.621155 43.2488C0.621155 43.5559 0.743147 43.8504 0.960294 44.0675C1.17744 44.2847 1.47196 44.4067 1.77905 44.4067H43.4632C43.7703 44.4067 44.0648 44.2847 44.282 44.0675C44.4991 43.8504 44.6211 43.5559 44.6211 43.2488C44.6211 42.9417 44.4991 42.6472 44.282 42.43C44.0648 42.2129 43.7703 42.0909 43.4632 42.0909ZM34.2001 14.3015H36.5158C36.8229 14.3015 37.1175 14.4234 37.3346 14.6406C37.5517 14.8577 37.6737 15.1523 37.6737 15.4593C37.6678 15.7646 37.5439 16.0557 37.328 16.2715C37.1122 16.4874 36.8211 16.6113 36.5158 16.6172H34.2001C33.8948 16.6113 33.6037 16.4874 33.3879 16.2715C33.172 16.0557 33.0481 15.7646 33.0422 15.4593C33.0422 15.1523 33.1642 14.8577 33.3813 14.6406C33.5984 14.4234 33.893 14.3015 34.2001 14.3015ZM34.2001 21.2488H36.5158C36.8229 21.2488 37.1175 21.3708 37.3346 21.588C37.5517 21.8051 37.6737 22.0996 37.6737 22.4067C37.6737 22.7138 37.5517 23.0083 37.3346 23.2255C37.1175 23.4426 36.8229 23.5646 36.5158 23.5646H34.2001C33.893 23.5646 33.5984 23.4426 33.3813 23.2255C33.1642 23.0083 33.0422 22.7138 33.0422 22.4067C33.0422 22.0996 33.1642 21.8051 33.3813 21.588C33.5984 21.3708 33.893 21.2488 34.2001 21.2488ZM34.2001 28.1962H36.5158C36.8211 28.2021 37.1122 28.326 37.328 28.5419C37.5439 28.7577 37.6678 29.0488 37.6737 29.3541C37.6737 29.6612 37.5517 29.9557 37.3346 30.1728C37.1175 30.39 36.8229 30.512 36.5158 30.512H34.2001C33.893 30.512 33.5984 30.39 33.3813 30.1728C33.1642 29.9557 33.0422 29.6612 33.0422 29.3541C33.0481 29.0488 33.172 28.7577 33.3879 28.5419C33.6037 28.326 33.8948 28.2021 34.2001 28.1962ZM34.2001 35.1435H36.5158C36.8229 35.1435 37.1175 35.2655 37.3346 35.4827C37.5517 35.6998 37.6737 35.9943 37.6737 36.3014C37.6737 36.6085 37.5517 36.903 37.3346 37.1202C37.1175 37.3373 36.8229 37.4593 36.5158 37.4593H34.2001C33.893 37.4593 33.5984 37.3373 33.3813 37.1202C33.1642 36.903 33.0422 36.6085 33.0422 36.3014C33.0422 35.9943 33.1642 35.6998 33.3813 35.4827C33.5984 35.2655 33.893 35.1435 34.2001 35.1435ZM19.1474 7.3541H21.4632C21.7703 7.3541 22.0648 7.47609 22.282 7.69324C22.4991 7.91038 22.6211 8.2049 22.6211 8.51199C22.6211 8.81908 22.4991 9.1136 22.282 9.33074C22.0648 9.54789 21.7703 9.66988 21.4632 9.66988H19.1474C18.8404 9.66988 18.5458 9.54789 18.3287 9.33074C18.1115 9.1136 17.9896 8.81908 17.9896 8.51199C17.9896 8.2049 18.1115 7.91038 18.3287 7.69324C18.5458 7.47609 18.8404 7.3541 19.1474 7.3541ZM19.1474 14.3015H21.4632C21.7703 14.3015 22.0648 14.4234 22.282 14.6406C22.4991 14.8577 22.6211 15.1523 22.6211 15.4593C22.6211 15.7664 22.4991 16.061 22.282 16.2781C22.0648 16.4953 21.7703 16.6172 21.4632 16.6172H19.1474C18.8404 16.6172 18.5458 16.4953 18.3287 16.2781C18.1115 16.061 17.9896 15.7664 17.9896 15.4593C17.9896 15.1523 18.1115 14.8577 18.3287 14.6406C18.5458 14.4234 18.8404 14.3015 19.1474 14.3015ZM19.1474 21.2488H21.4632C21.7703 21.2488 22.0648 21.3708 22.282 21.588C22.4991 21.8051 22.6211 22.0996 22.6211 22.4067C22.6211 22.7138 22.4991 23.0083 22.282 23.2255C22.0648 23.4426 21.7703 23.5646 21.4632 23.5646H19.1474C18.8404 23.5646 18.5458 23.4426 18.3287 23.2255C18.1115 23.0083 17.9896 22.7138 17.9896 22.4067C17.9896 22.0996 18.1115 21.8051 18.3287 21.588C18.5458 21.3708 18.8404 21.2488 19.1474 21.2488ZM19.1474 28.1962H21.4632C21.7703 28.1962 22.0648 28.3182 22.282 28.5353C22.4991 28.7525 22.6211 29.047 22.6211 29.3541C22.6211 29.6612 22.4991 29.9557 22.282 30.1728C22.0648 30.39 21.7703 30.512 21.4632 30.512H19.1474C18.8404 30.512 18.5458 30.39 18.3287 30.1728C18.1115 29.9557 17.9896 29.6612 17.9896 29.3541C17.9896 29.047 18.1115 28.7525 18.3287 28.5353C18.5458 28.3182 18.8404 28.1962 19.1474 28.1962ZM12.0611 7.3541H14.5159C14.823 7.3541 15.1175 7.47609 15.3346 7.69324C15.5518 7.91038 15.6738 8.2049 15.6738 8.51199C15.6738 8.81908 15.5518 9.1136 15.3346 9.33074C15.1175 9.54789 14.823 9.66988 14.5159 9.66988H12.2001C11.893 9.66988 11.5985 9.54789 11.3813 9.33074C11.1642 9.1136 11.0422 8.81908 11.0422 8.51199C11.0422 8.2049 11.1642 7.91038 11.3813 7.69324C11.5985 7.47609 11.893 7.3541 12.2001 7.3541H12.0611ZM12.0611 14.3015H14.5159C14.823 14.3015 15.1175 14.4234 15.3346 14.6406C15.5518 14.8577 15.6738 15.1523 15.6738 15.4593C15.6738 15.7664 15.5518 16.061 15.3346 16.2781C15.1175 16.4953 14.823 16.6172 14.5159 16.6172H12.2001C11.893 16.6172 11.5985 16.4953 11.3813 16.2781C11.1642 16.061 11.0422 15.7664 11.0422 15.4593C11.0422 15.1523 11.1642 14.8577 11.3813 14.6406C11.5985 14.4234 11.893 14.3015 12.2001 14.3015H12.0611ZM12.0611 21.2488H14.5159C14.823 21.2488 15.1175 21.3708 15.3346 21.588C15.5518 21.8051 15.6738 22.0996 15.6738 22.4067C15.6738 22.7138 15.5518 23.0083 15.3346 23.2255C15.1175 23.4426 14.823 23.5646 14.5159 23.5646H12.2001C11.893 23.5646 11.5985 23.4426 11.3813 23.2255C11.1642 23.0083 11.0422 22.7138 11.0422 22.4067C11.0422 22.0996 11.1642 21.8051 11.3813 21.588C11.5985 21.3708 11.893 21.2488 12.2001 21.2488H12.0611ZM12.0611 28.1962H14.5159C14.823 28.1962 15.1175 28.3182 15.3346 28.5353C15.5518 28.7525 15.6738 29.047 15.6738 29.3541C15.6738 29.6612 15.5518 29.9557 15.3346 30.1728C15.1175 30.39 14.823 30.512 14.5159 30.512H12.2001C11.893 30.512 11.5985 30.39 11.3813 30.1728C11.1642 29.9557 11.0422 29.6612 11.0422 29.3541C11.0422 29.047 11.1642 28.7525 11.3813 28.5353C11.5985 28.3182 11.893 28.1962 12.2001 28.1962H12.0611ZM17.9896 42.0909V37.4593H15.6738V42.0909H13.358V36.232C13.3757 35.9371 13.5055 35.6601 13.7207 35.4578C13.936 35.2554 14.2204 35.143 14.5159 35.1435H19.1474C19.4545 35.1435 19.7491 35.2655 19.9662 35.4827C20.1833 35.6998 20.3053 35.9943 20.3053 36.3014V42.0909H17.9896Z" fill="#F2994A"/>
</g>
<defs>
<clipPath id="clip0_549_565">
<rect width="44" height="44" fill="white" transform="translate(0.621094 0.406738)"/>
</clipPath>
</defs>
</svg>
