<svg width="45" height="45" viewBox="0 0 45 45" fill="none" xmlns="http://www.w3.org/2000/svg">
<g clip-path="url(#clip0_549_502)">
<path d="M41.8711 35.9675H40.4951V18.0925C40.4943 17.3634 40.2043 16.6645 39.6887 16.1489C39.1732 15.6334 38.4742 15.3434 37.7451 15.3425H26.7451V7.09253C26.7443 6.36344 26.4543 5.66445 25.9387 5.14891C25.4232 4.63336 24.7242 4.34336 23.9951 4.34253H7.49509C6.766 4.34336 6.06701 4.63336 5.55146 5.14891C5.03592 5.66445 4.74592 6.36344 4.74509 7.09253V35.9675H3.37109C3.00642 35.9675 2.65668 36.1124 2.39882 36.3703C2.14096 36.6281 1.99609 36.9779 1.99609 37.3425C1.99609 37.7072 2.14096 38.0569 2.39882 38.3148C2.65668 38.5727 3.00642 38.7175 3.37109 38.7175H41.8711C42.2358 38.7175 42.5855 38.5727 42.8434 38.3148C43.1012 38.0569 43.2461 37.7072 43.2461 37.3425C43.2461 36.9779 43.1012 36.6281 42.8434 36.3703C42.5855 36.1124 42.2358 35.9675 41.8711 35.9675ZM21.2451 23.5925C21.2451 23.9572 21.1002 24.3069 20.8424 24.5648C20.5845 24.8227 20.2348 24.9675 19.8701 24.9675H14.3701C14.0054 24.9675 13.6557 24.8227 13.3978 24.5648C13.14 24.3069 12.9951 23.9572 12.9951 23.5925C12.9951 23.2279 13.14 22.8781 13.3978 22.6203C13.6557 22.3624 14.0054 22.2175 14.3701 22.2175H19.8701C20.2348 22.2175 20.5845 22.3624 20.8424 22.6203C21.1002 22.8781 21.2451 23.2279 21.2451 23.5925ZM11.6201 11.2175H17.1201C17.4848 11.2175 17.8345 11.3624 18.0924 11.6203C18.3502 11.8781 18.4951 12.2279 18.4951 12.5925C18.4951 12.9572 18.3502 13.3069 18.0924 13.5648C17.8345 13.8227 17.4848 13.9675 17.1201 13.9675H11.6201C11.2554 13.9675 10.9057 13.8227 10.6478 13.5648C10.39 13.3069 10.2451 12.9572 10.2451 12.5925C10.2451 12.2279 10.39 11.8781 10.6478 11.6203C10.9057 11.3624 11.2554 11.2175 11.6201 11.2175ZM11.6201 29.0925H17.1201C17.4848 29.0925 17.8345 29.2374 18.0924 29.4953C18.3502 29.7531 18.4951 30.1029 18.4951 30.4675C18.4951 30.8322 18.3502 31.1819 18.0924 31.4398C17.8345 31.6977 17.4848 31.8425 17.1201 31.8425H11.6201C11.2554 31.8425 10.9057 31.6977 10.6478 31.4398C10.39 31.1819 10.2451 30.8322 10.2451 30.4675C10.2451 30.1029 10.39 29.7531 10.6478 29.4953C10.9057 29.2374 11.2554 29.0925 11.6201 29.0925ZM26.7451 18.0925H37.7451V35.9675H26.7451V18.0925Z" fill="#2D9CDB"/>
<path d="M33.6201 29.0925H30.8701C30.5054 29.0925 30.1557 29.2374 29.8978 29.4953C29.64 29.7531 29.4951 30.1029 29.4951 30.4675C29.4951 30.8322 29.64 31.1819 29.8978 31.4398C30.1557 31.6977 30.5054 31.8425 30.8701 31.8425H33.6201C33.9848 31.8425 34.3345 31.6977 34.5924 31.4398C34.8503 31.1819 34.9951 30.8322 34.9951 30.4675C34.9951 30.1029 34.8503 29.7531 34.5924 29.4953C34.3345 29.2374 33.9848 29.0925 33.6201 29.0925ZM30.8701 24.9675H33.6201C33.9848 24.9675 34.3345 24.8227 34.5924 24.5648C34.8503 24.3069 34.9951 23.9572 34.9951 23.5925C34.9951 23.2279 34.8503 22.8781 34.5924 22.6203C34.3345 22.3624 33.9848 22.2175 33.6201 22.2175H30.8701C30.5054 22.2175 30.1557 22.3624 29.8978 22.6203C29.64 22.8781 29.4951 23.2279 29.4951 23.5925C29.4951 23.9572 29.64 24.3069 29.8978 24.5648C30.1557 24.8227 30.5054 24.9675 30.8701 24.9675Z" fill="#2D9CDB"/>
</g>
<defs>
<clipPath id="clip0_549_502">
<rect width="44" height="44" fill="white" transform="translate(0.621094 0.220459)"/>
</clipPath>
</defs>
</svg>
