<svg width="47" height="59" viewBox="0 0 47 59" fill="none" xmlns="http://www.w3.org/2000/svg">
<path d="M0.979004 5.1796C0.979004 2.60301 3.06774 0.514282 5.64432 0.514282H28.1806L46.3149 19.0163V54.0506C46.3149 56.6272 44.2262 58.7159 41.6496 58.7159H5.64432C3.06774 58.7159 0.979004 56.6272 0.979004 54.0506V5.1796Z" fill="#F1F1F1"/>
<path fill-rule="evenodd" clip-rule="evenodd" d="M25.2457 13.7758H8.73979V13.1926H25.2457V13.7758ZM25.2457 20.495H8.73979V19.9118H25.2457V20.495ZM36.3469 27.2142H8.73979V26.631H36.3469V27.2142ZM36.3469 34.0794H8.73979V33.4963H36.3469V34.0794ZM36.3469 40.9447H8.73979V40.3615H36.3469V40.9447ZM36.3469 47.956H8.73979V47.3729H36.3469V47.956ZM46.3149 19.0163L28.1806 0.514282H5.64432C3.06774 0.514282 0.979004 2.60301 0.979004 5.1796V54.0506C0.979004 56.6272 3.06774 58.7159 5.64432 58.7159H41.6496C44.2262 58.7159 46.3149 56.6272 46.3149 54.0506V19.0163ZM27.9356 1.09745L45.7318 19.2544V54.0506C45.7318 56.3051 43.9041 58.1328 41.6496 58.1328H5.64432C3.38981 58.1328 1.56217 56.3051 1.56217 54.0506V5.1796C1.56217 2.92509 3.38981 1.09745 5.64432 1.09745H27.9356Z" fill="#364640"/>
<path d="M28.0215 15.5724V0.80072L45.9631 19.0714H31.5205C29.588 19.0714 28.0215 17.5048 28.0215 15.5724Z" fill="#D0D0D0"/>
<path fill-rule="evenodd" clip-rule="evenodd" d="M27.9117 0.530856C28.0213 0.486037 28.1471 0.511958 28.2301 0.596449L46.1717 18.8671C46.254 18.9509 46.278 19.0759 46.2325 19.1842C46.1871 19.2925 46.0811 19.363 45.9637 19.363H31.521C29.4276 19.363 27.7305 17.6659 27.7305 15.5724V0.800747C27.7305 0.68233 27.8021 0.575674 27.9117 0.530856ZM28.3136 1.51384V15.5724C28.3136 17.3438 29.7496 18.7798 31.521 18.7798H45.2687L28.3136 1.51384Z" fill="#364640"/>
</svg>
